<svg viewBox="0 0 468 480" version="1.1" xmlns="http://www.w3.org/2000/svg" xmlns:xlink="http://www.w3.org/1999/xlink">
    <g stroke="none" stroke-width="1" fill="none" fill-rule="evenodd">
        <g transform="translate(3.000000, 1.000000)" fill="#000000" fill-rule="nonzero" stroke="#000000">
            <path d="M372.148964,256.449508 L385.980995,242.617477 C399.109901,230.008102 400.086464,209.332321 388.195838,195.547165 C383.699745,190.488571 377.758338,186.926071 371.180214,185.34404 L373.980995,182.547165 C387.15287,169.949508 388.129432,149.234665 376.195838,135.457321 C370.078651,128.590134 361.391151,124.56279 352.195838,124.336227 C342.99662,124.15654 334.105995,127.676071 327.523964,134.105758 L325.980995,135.648727 C320.063026,130.027634 312.281776,126.785446 304.12162,126.547165 C294.949745,126.37529 286.094276,129.90654 279.555214,136.34404 L263.625526,152.273727 C260.016151,137.21904 246.566932,126.59404 231.082557,126.56279 L231.035682,126.56279 C222.180214,126.554977 213.688026,130.082321 207.441932,136.359665 L146.645057,197.160446 C145.504432,187.31279 140.895057,178.195602 133.637245,171.441696 C123.754432,162.515915 108.602088,162.941696 99.2349009,172.402634 L41.6372449,230.00029 C-11.0190051,281.105758 -14.1283801,364.597946 34.5708379,419.480758 C67.3638069,455.965134 117.445838,471.660446 165.195838,460.410446 C171.266151,461.234665 177.383338,461.65654 183.508338,461.672165 C219.27787,461.695602 253.574745,447.410446 278.754432,422.00029 L386.99662,313.840134 C400.09037,301.183884 401.051307,280.515915 389.188026,266.699508 C384.691932,261.617477 378.742714,258.039352 372.148964,256.449508 L372.148964,256.449508 Z M376.301307,206.234665 C382.387245,213.730758 381.691932,224.644821 374.699745,231.304977 L339.203651,266.801071 C338.973182,266.578415 338.71537,266.402634 338.484901,266.191696 C337.914588,265.68779 337.34037,265.203415 336.74662,264.746384 C336.156776,264.289352 335.34037,263.722946 334.609901,263.242477 C334.035682,262.867477 333.457557,262.441696 332.859901,262.129196 C331.99662,261.640915 331.098182,261.226852 330.203651,260.816696 C329.68412,260.578415 329.188026,260.31279 328.660682,260.105758 C327.207557,259.519821 325.711464,259.043258 324.188026,258.679977 L335.242714,247.617477 L338.020057,244.855758 C339.430214,243.414352 340.723182,241.859665 341.875526,240.203415 C342.363807,239.519821 342.770057,238.808884 343.203651,238.105758 C343.730995,237.226852 344.234901,236.34404 344.691932,235.433884 C345.148964,234.519821 345.68412,233.371384 346.098182,232.304977 C346.242714,231.914352 346.355995,231.504196 346.492714,231.137008 C348.031776,226.738571 348.672401,222.074508 348.37162,217.426071 L348.37162,217.351852 C348.262245,215.84404 348.055214,214.340134 347.74662,212.855758 C347.68412,212.539352 347.594276,212.21904 347.523964,211.898727 C347.34037,211.097946 347.211464,210.297165 346.973182,209.586227 L350.973182,205.586227 L351.098182,205.457321 C354.449745,202.097946 359.039588,200.28154 363.77787,200.433884 C368.574745,200.547165 373.109901,202.648727 376.301307,206.234665 L376.301307,206.234665 Z M338.836464,145.433884 C342.266151,142.035446 346.938026,140.18779 351.762245,140.320602 C356.574745,140.449508 361.12162,142.566696 364.316932,146.168258 C370.410682,153.664352 369.691932,164.59404 362.668495,171.226852 L339.762245,194.121384 L339.602088,194.289352 L338.188026,195.715134 C337.988807,195.527634 337.770057,195.379196 337.578651,195.203415 C336.938026,194.633102 336.301307,194.082321 335.625526,193.601852 C334.953651,193.121384 334.37162,192.699508 333.730995,192.273727 C333.09037,191.847946 332.441932,191.402634 331.762245,191.015915 C331.082557,190.633102 330.164588,190.21904 329.363807,189.847946 C328.754432,189.56279 328.164588,189.25029 327.539588,189.00029 C326.137245,188.445602 324.699745,187.984665 323.234901,187.62529 L323.148964,187.62529 L325.953651,184.824508 C327.457557,183.293258 328.816932,181.633102 330.020057,179.855758 C330.227088,179.56279 330.410682,179.265915 330.602088,178.961227 C331.52787,177.551071 332.348182,176.074508 333.05912,174.547165 C333.258338,174.121384 333.477088,173.746384 333.660682,173.289352 C334.398964,171.543258 334.99662,169.738571 335.441932,167.898727 C335.586464,167.31279 335.65287,166.722946 335.762245,166.137008 C336.004432,164.894821 336.180214,163.640915 336.289588,162.379196 C336.355995,161.578415 336.387245,160.777634 336.395057,159.922165 C336.395057,158.816696 336.34037,157.722946 336.242714,156.617477 C336.172401,155.816696 336.141151,155.015915 336.020057,154.28154 C335.762245,152.62529 335.379432,150.992477 334.875526,149.394821 L338.836464,145.433884 Z M81.4028699,435.273727 C68.2036509,428.648727 56.3403699,419.637008 46.4184949,408.699508 C3.48880693,360.121384 6.37552593,286.367477 52.9731819,241.297165 L110.570838,183.699508 C112.305214,181.957321 114.656776,180.972946 117.113807,180.961227 C119.188026,180.933884 121.188026,181.695602 122.71537,183.097946 C127.859901,187.914352 130.828651,194.613571 130.945838,201.660446 C131.063026,208.707321 128.313026,215.496384 123.332557,220.480758 L69.1645879,274.617477 C67.0825569,276.62529 66.2505259,279.601852 66.9809949,282.398727 C67.7153699,285.195602 69.8989639,287.379196 72.6958379,288.109665 C75.4927139,288.84404 78.4653699,288.008102 80.4770879,285.929977 L134.586464,231.824508 L218.738807,147.672165 C221.99662,144.390915 226.43412,142.551071 231.05912,142.56279 C238.141151,142.566696 244.52787,146.832321 247.238807,153.379196 C249.945838,159.922165 248.449745,167.453415 243.441932,172.465134 L153.332557,262.59404 C151.250526,264.601852 150.418495,267.578415 151.148964,270.37529 C151.883338,273.172165 154.066932,275.355758 156.863807,276.086227 C159.660682,276.820602 162.633338,275.984665 164.645057,273.90654 L254.762245,183.777634 L290.891151,147.65654 C294.293495,144.258102 298.941932,142.40654 303.750526,142.539352 C308.555214,142.672165 313.098182,144.773727 316.30912,148.351852 C318.520057,150.847946 319.918495,153.961227 320.30912,157.273727 C320.30912,157.488571 320.30912,157.722946 320.348182,157.945602 C320.430214,158.789352 320.449745,159.637008 320.410682,160.480758 C320.410682,160.777634 320.355995,161.074508 320.332557,161.371384 C320.254432,162.176071 320.129432,162.976852 319.953651,163.769821 C319.891151,164.058884 319.820838,164.34404 319.738807,164.633102 C319.504432,165.480758 319.21537,166.31279 318.875526,167.121384 C318.797401,167.320602 318.71537,167.519821 318.625526,167.715134 C317.641151,169.847946 316.289588,171.789352 314.625526,173.449508 L296.05912,192.015915 L291.691932,196.379196 L291.645057,196.433884 L291.645057,196.472946 L189.40287,298.664352 C187.324745,300.676071 186.488807,303.648727 187.223182,306.445602 C187.953651,309.242477 190.137245,311.426071 192.93412,312.160446 C195.730995,312.890915 198.707557,312.058884 200.71537,309.976852 L302.914588,207.777634 C303.242714,207.449508 303.617714,207.21904 303.96537,206.922165 C307.137245,204.258102 311.125526,202.765915 315.266151,202.68779 L315.74662,202.68779 C316.938026,202.71904 318.12162,202.871384 319.281776,203.137008 C322.77787,203.961227 325.93412,205.84404 328.316932,208.527634 C330.125526,210.578415 331.375526,213.058884 331.945838,215.730758 C333.34037,222.191696 331.344276,228.918258 326.65287,233.578415 L325.051307,235.176071 L292.594276,267.554977 C292.523964,267.62529 292.508338,267.715134 292.43412,267.785446 L225.469276,334.754196 C223.387245,336.762008 222.555214,339.734665 223.285682,342.535446 C224.016151,345.332321 226.203651,347.515915 229.000526,348.246384 C231.797401,348.980758 234.770057,348.144821 236.77787,346.066696 L303.980995,278.914352 C306.445838,276.441696 309.598182,274.765915 313.02787,274.113571 L313.258338,274.051071 C314.430214,273.840134 315.62162,273.754196 316.813026,273.793258 C317.887245,273.832321 318.957557,273.96904 320.012245,274.203415 L320.348182,274.25029 C320.754432,274.34404 321.148964,274.527634 321.523964,274.648727 C324.539588,275.570602 327.254432,277.293258 329.37162,279.633102 C330.125526,280.46904 330.785682,281.383102 331.348182,282.359665 C335.188026,289.797165 333.703651,298.87529 327.691932,304.699508 L219.441932,412.890915 C217.242714,415.090134 214.973182,417.176071 212.645057,419.176071 C212.211464,419.539352 211.770057,419.87529 211.34037,420.234665 C209.484901,421.777634 207.602088,423.265915 205.676307,424.68779 C204.922401,425.242477 204.148964,425.769821 203.387245,426.289352 C201.738807,427.441696 200.070838,428.551071 198.379432,429.617477 C197.449745,430.203415 196.523964,430.762008 195.578651,431.320602 C193.980995,432.242477 192.426307,433.121384 190.820838,433.976852 C189.762245,434.539352 188.699745,435.097946 187.617714,435.62529 C186.133338,436.359665 184.617714,437.043258 183.098182,437.707321 C181.891151,438.242477 180.699745,438.793258 179.449745,439.304977 C178.203651,439.816696 176.859901,440.265915 175.563026,440.738571 C174.05912,441.28154 172.570838,441.847946 171.051307,442.336227 C170.754432,442.433884 170.449745,442.504196 170.156776,442.59404 C167.820838,443.31279 165.457557,443.976852 163.074745,444.554977 C163.004432,444.554977 162.945838,444.62529 162.867714,444.648727 C135.457557,451.25029 106.598182,447.926071 81.4028699,435.273727 Z M267.441932,410.664352 C250.887245,427.347946 229.742714,438.734665 206.699745,443.371384 C207.180214,443.066696 207.609901,442.68779 208.09037,442.379196 C210.668495,440.722946 213.148964,438.898727 215.625526,437.051071 C217.066932,435.984665 218.555214,434.992477 219.945838,433.847946 C222.930214,431.449508 225.785682,428.824508 228.594276,426.129196 C229.301307,425.465134 230.074745,424.890915 230.754432,424.211227 L338.99662,315.96904 C340.438026,314.488571 341.750526,312.879196 342.914588,311.168258 C343.316932,310.601852 343.65287,310.015915 344.020057,309.433884 C344.648964,308.422165 345.230995,307.37529 345.754432,306.304977 C346.203651,305.394821 346.617714,304.488571 346.988807,303.554977 C347.219276,302.953415 347.40287,302.336227 347.602088,301.722946 C348.984901,297.601852 349.574745,293.258102 349.348182,288.922165 C349.348182,288.679977 349.348182,288.441696 349.348182,288.203415 C349.250526,286.840134 349.066932,285.484665 348.797401,284.144821 C348.691932,283.609665 348.547401,283.090134 348.418495,282.547165 C348.289588,282.00029 348.156776,281.234665 347.953651,280.601852 L351.898964,276.648727 C355.293495,273.230758 359.945838,271.363571 364.758338,271.488571 C369.574745,271.609665 374.125526,273.711227 377.34037,277.297165 C383.406776,284.84404 382.691932,295.777634 375.691932,302.465134 L267.441932,410.664352 Z" id="Shape" stroke-width="5"></path>
            <path d="M461.898964,34.2424769 C458.773964,31.1174769 453.711464,31.1174769 450.586464,34.2424769 L402.586464,82.2424769 C400.508338,84.2502899 399.672401,87.2229459 400.406776,90.0198209 C401.137245,92.8206019 403.320838,95.0041959 406.117714,95.7346649 C408.914588,96.4690399 411.891151,95.6331019 413.898964,93.5549769 L461.898964,45.5549769 C465.023964,42.4299769 465.023964,37.3674769 461.898964,34.2424769 Z" id="Path"></path>
            <path d="M452.668495,96.7385709 L420.668495,112.738571 C416.711464,114.711227 415.109901,119.519821 417.082557,123.472946 C419.05912,127.426071 423.863807,129.03154 427.820838,127.058884 L459.820838,111.058884 C463.773964,109.082321 465.379432,104.277634 463.40287,100.320602 C461.430214,96.3674769 456.62162,94.7620079 452.668495,96.7385709 L452.668495,96.7385709 Z" id="Path"></path>
            <path d="M372.12162,78.7541959 C375.910682,81.0276339 380.824745,79.8049769 383.098182,76.0159149 L407.098182,36.0159149 C409.27787,32.2385709 408.02787,27.4104459 404.289588,25.1643519 C400.551307,22.9182579 395.699745,24.0784149 393.387245,27.7776339 L369.387245,67.7776339 C367.113807,71.5627899 368.336464,76.4768519 372.12162,78.7541959 Z" id="Path"></path>
            <path d="M176.891151,67.0510709 C178.672401,71.0432579 183.332557,72.8674769 187.352088,71.1448209 C191.37162,69.4221649 193.262245,64.7893519 191.594276,60.7463839 L167.594276,4.74638393 C165.813026,0.750289932 161.156776,-1.07392907 157.137245,0.648726932 C153.117714,2.37138393 151.227088,7.00419593 152.891151,11.0510709 L176.891151,67.0510709 Z" id="Path"></path>
            <path d="M216.242714,71.8987269 C220.660682,71.8987269 224.242714,68.3166959 224.242714,63.8987269 L224.242714,15.8987269 C224.242714,11.4807579 220.660682,7.89872693 216.242714,7.89872693 C211.824745,7.89872693 208.242714,11.4807579 208.242714,15.8987269 L208.242714,63.8987269 C208.242714,68.3166959 211.824745,71.8987269 216.242714,71.8987269 Z" id="Path"></path>
            <path d="M145.99662,84.8987269 C148.758338,88.3479459 153.793495,88.9065399 157.242714,86.1448209 C160.695838,83.3831019 161.254432,78.3479459 158.492714,74.8987269 L126.492714,34.8987269 C123.730995,31.4456019 118.695838,30.8870079 115.242714,33.6487269 C111.793495,36.4104459 111.234901,41.4456019 113.99662,44.8987269 L145.99662,84.8987269 Z" id="Path"></path>
        </g>
    </g>
</svg>